# xmcd CD database file generated by LOLA_Freedb v0.9beta0
# 
# Track frame offsets:
#      150
#      16612
#      28357
#      38882
#      49049
#      58799
#      68774
#      80512
#      94124
#      106549
#      119499
#      135037
#      150874
#      164874
#      178024
#      191237
#      210274
#      224562
#      241799
#      255449
#      267912
# 
# Disc length: 3770 seconds
# 
# Revision: 0 
# Processed by: cddbd v1.5.1PL0 Copyright (c) Steve Scherf et al.
# Submitted via: LOLA_Freedb v0.9beta0
# 
DISCID=180eb815
DTITLE=Various Artist - Best Of Nashville and New Country CD 2
DYEAR=1997
DGENRE=
TTITLE0=Waylon Jennings - America
TTITLE1=Lefty Frizzell - Cigarettes And Coffee Blues
TTITLE2=Leroy Van Dyke - Walk On By
TTITLE3=Billy Walker - Charlie´s Shoes
TTITLE4=Hank Locklin - Geisha Girl
TTITLE5=Johnny Horton - Honky Tonk Man
TTITLE6=Johnny Cash - Ring Of Fire
TTITLE7=Alabama - High Cotton
TTITLE8=Rhonda Vincent - Is The Grass Any Bluer
TTITLE9=The O´Kanes - Oh Darlin
TTITLE10=Reba McEntire - Sweet Music Man
TTITLE11=Highway 101 - The Bad You Made For Me
TTITLE12=Randy Travis - On The Other Hand
TTITLE13=Lorrie Morgan - Except For Monday
TTITLE14=Jim Lauderdale - She Used To Say That To Me
TTITLE15=Sherrie Austin - Goin´,Goin´,Gone
TTITLE16=Radney Foster - Just Call Me Lonesome
TTITLE17=K.T.Oslin - Come Next Monday
TTITLE18=Prairie - Long Gone Daddy
TTITLE19=Prairie Oyster -  Long Gone Daddy
TTITLE20=Lee Roy Parnell - We All Get Lucky Sometimes
EXTD=
EXTT0=
EXTT1=
EXTT2=
EXTT3=
EXTT4=
EXTT5=
EXTT6=
EXTT7=
EXTT8=
EXTT9=
EXTT10=
EXTT11=
EXTT12=
EXTT13=
EXTT14=
EXTT15=
EXTT16=
EXTT17=
EXTT18=
EXTT19=
EXTT20=
PLAYORDER=
